<svg xmlns="http://www.w3.org/2000/svg" xmlns:xlink="http://www.w3.org/1999/xlink" viewBox="0,0,256,256" width="48px" height="48px" fill-rule="nonzero"><g fill="none" fill-rule="nonzero" stroke="none" stroke-width="1" stroke-linecap="butt" stroke-linejoin="miter" stroke-miterlimit="10" stroke-dasharray="" stroke-dashoffset="0" font-family="none" font-weight="none" font-size="none" text-anchor="none" style="mix-blend-mode: normal"><g transform="scale(0.5,0.5)"><path d="M332.4,112.9c-0.8,-7.3 -4.2,-10.9 -11.4,-12.5c-9.6,-2.1 -19.6,-1.7 -29.2,-0.5c-4,0.5 -8,1.1 -12,1.9c-0.9,1.1 -2.2,1.9 -4.1,2.1c-2.9,0.3 -5.6,1.4 -8.5,1.8c0,3.4 -0.2,6.8 -0.6,10.2h20.2c3.4,0 6,2.1 6.4,5.5c6,43.2 0,86.7 -2,130c-2,42.3 -2,84.6 -2,126.9c1.7,0.5 3.2,1.8 3.8,3.8c0.1,0 0.1,0 0.2,0.1c0.5,0.2 1.8,0.3 2.5,0.4c3,0.3 6,0.3 9,0.2c4,-0.2 7.9,-0.6 11.9,-0.8c5.4,-22.9 1.2,-46.5 2.5,-69.8c0.8,-15 2.6,-29.4 5,-44.3c1.7,-11 2.6,-21.7 3,-32.7c-0.1,-0.6 -0.1,-1.3 0.1,-2c0.1,-4 0.2,-7.9 0.2,-11.9v-47.5c0,-10.4 1.2,-20.3 2.8,-30.6c1.3,-9.8 3.3,-20.2 2.2,-30.3z" fill="#ffffff"></path><path d="M257.2,357.3c-0.5,-31.6 -5.3,-63 -9.2,-94.3c-1,-8.1 -2.7,-16.6 -2.7,-24.7c0,-5.5 0.2,-11.1 0.1,-16.6c-0.2,-11.5 -0.7,-24.5 -6.9,-34.6c-5.8,-9.5 -15.7,-16.9 -26.8,-18.6c-10.5,-1.6 -21.1,1 -30.8,4.9c-21,8.5 -39.2,22.3 -59.5,32c-0.7,0.3 -1.3,0.5 -2,0.6c-2.5,2 -6.5,2.4 -9,-0.9c-1.7,-2.2 -3.6,-5 -6.4,-5.9c-1,-0.4 -2.4,-0.2 -3.5,0c0.6,-0.1 1.9,-2 0.6,-0.8c-2.5,2.5 -5,5.1 -7.5,7.7c-3.2,3.5 -6.6,7 -9.3,10.9c-0.4,0.6 -0.7,1 -1.1,1.7v0v0.1c0,0.5 -0.2,0.9 -0.4,1.4c0.2,0.6 0.3,1.2 0.3,1.8c7.4,6.3 10.5,17.3 12.4,26.3c3.5,16.5 4.6,33.3 5.1,50.1c0.8,28 -1,55.9 -1.3,83.9c12.4,1.2 25.1,1 37.4,-1.3c-2.6,-20.5 -8.8,-40.4 -12.6,-60.7c-3.9,-20.9 -6.1,-43.7 2.4,-63.8c7.6,-18 24.4,-31.2 41.3,-40.2c15.9,-8.5 38.3,-14.4 47.9,5.8c9.1,19.2 4.5,43.5 2.5,63.7c-1.2,12.1 -1,24.1 -1.3,36.2c-0.5,15.7 -0.8,31.4 0.4,47.1c0,0.3 0,0.5 0,0.8c2.1,0.6 5,1 6.9,1.2c4.4,0.5 8.7,0.7 13.1,0.8c6.7,0.1 13.4,-0.1 20,-0.2c0,-4.6 0,-9.5 -0.1,-14.4z" fill="#ffffff"></path><path d="M397.7,157.8c-0.9,0 -1.7,-0.2 -2.4,-0.4c-11.6,10 -17.4,25.5 -26.4,37.6c-5.3,7 -11.3,13.5 -16.9,20.3c-4.7,5.7 -10.1,11.8 -12.6,18.9c-0.1,5.4 -0.3,10.7 -0.8,16c-1.2,13.2 -3.9,26.2 -5.7,39.4c1,0 2,0.3 3,0.9c3,1.8 3.5,5 2.6,7.6c0.6,1.9 1.2,3.7 1.9,5.5c1.8,4.9 3.8,9.7 5.9,14.6c3.5,8.3 7,16.5 10,25c3.3,9.4 3.4,27.8 15.8,29.9c10.2,1.7 20.6,0.3 31,-0.6c0,-0.7 0.1,-1.4 0.4,-2.1c-1.3,-1.9 -2.2,-4.2 -3.2,-6.3c-2.4,-5.5 -4.6,-11.1 -6.7,-16.7c-2.7,-7.3 -5.5,-14.6 -7.6,-22c-2.8,-10 -8.6,-19.2 -13.2,-28.4c-4.8,-9.6 -10.5,-20.9 -10,-32c0.5,-12 7.5,-22.1 15.2,-30.8c7.9,-8.8 16.1,-17 23.5,-26.3c7.9,-9.8 16.5,-19.2 23.5,-29.7c3.3,-4.8 5.5,-10 8.1,-15.2c0.2,-0.3 0.5,-0.9 0.7,-1.5c-11.9,-3.3 -23.9,-3.7 -36.1,-3.7z" fill="#ffffff"></path><path d="M465.8,172.6c-21.3,-43.4 -61.6,-77.5 -104.2,-99c-42.8,-21.7 -92.3,-33.1 -140.1,-25.5c-78.9,12.5 -155.4,70.3 -177.9,147.9c0,0.9 -0.2,1.7 -0.7,2.6c-0.4,1.4 -0.8,2.9 -1.1,4.3c-0.5,1 -1,2 -1.4,3.1c-0.1,0.9 -0.3,1.9 -0.4,2.7c-0.9,4.1 -2,8.2 -2.7,12.3c-1.4,7.7 -1.1,15.7 -3.8,23c-0.2,2.1 -0.5,4.2 -0.8,6.3c0,0.3 0,0.5 0,0.7c-0.5,4.4 -0.9,8.8 -1.3,13.2c-0.8,9.2 -1.2,18.4 -1.1,27.6c0.3,18.1 2.4,36.2 6.9,53.7c8.7,33.3 25.5,64.8 52,87.3c18.2,15.5 39.5,25.7 62.4,32.3c25,7.3 51,11.4 77.1,11.5c51.5,0.1 103.2,-13.9 145.6,-43.7c78.4,-55.2 137.5,-166.8 91.5,-260.3zM263.7,383.8c-9.8,0 -19.6,0.6 -29.4,0.2c-9,-0.3 -19.3,-0.4 -27,-5.7c-2.6,-1.8 -2.8,-4.4 -1.7,-6.5c-0.2,-0.5 -0.3,-1 -0.3,-1.6c-1.7,-21.4 -0.3,-42.8 0,-64.2c0.1,-14.1 2,-28 3,-42c0.9,-12.5 4,-46.2 -16.6,-43.7c-9.2,1.1 -17.9,6 -25.4,11.1c-7,4.7 -13.9,9.9 -19.9,15.8c-16.8,16.6 -14.9,45.2 -11.3,66.3c4,24 11.9,47.4 14.3,71.8c0.2,2.5 -1.5,5.5 -4,6.1c-17.5,4.2 -35.3,4.4 -53.1,2.2c-2.5,-0.3 -4.8,-2.9 -4.8,-5.4c0.1,-29.6 2.2,-59.2 1.3,-88.8c-0.5,-16.2 -1.1,-32.9 -4.8,-48.7c-1.3,-5.4 -3.1,-11.8 -5.5,-15.8c-1.5,-2.4 -1.7,-2.8 -3.3,-4.1c-0.6,-0.5 -0.5,-0.5 -0.5,-0.5c0,0 -0.2,0 -0.9,-0.4c-0.1,0 -0.2,-0.1 -0.2,-0.1c-0.4,-0.1 -0.8,-0.2 -1.2,-0.2c-5.5,-0.9 -5.8,-7.1 -2.8,-10.2c0.5,-1.2 1.3,-2 1.9,-3.2c0.4,-0.7 0.7,-2 1.2,-2.8c3.1,-5.7 7.8,-10.5 12.1,-15.2c3.9,-4.1 7.8,-9.8 13.6,-10.8c7.9,-1.4 13.7,1.7 18.6,6.9c0.2,-0.1 0.3,-0.2 0.5,-0.3c9.7,-4.6 18.9,-10.5 28.2,-15.9c19.1,-11.2 40.6,-23.6 63.5,-22c24.5,1.7 42.4,21 46.6,44.4c2.1,11.7 1.7,23.6 1.7,35.5c0,15.4 3.4,31.3 5.3,46.6c2,15.8 4.2,31.7 5.4,47.6c1.2,15.7 1.2,31.4 1.2,47.1c-0.1,3.2 -2.2,6.5 -5.7,6.5zM443.8,168.2c-2.4,4.8 -4.4,9.6 -7.3,14.1c-7,10.7 -15.3,20.3 -23.3,30.1c-3.6,4.5 -6.9,9.2 -10.9,13.4c-4,4.3 -8.2,8.4 -12.2,12.7c-7.1,7.7 -16.5,17.5 -15.2,28.9c1.3,11.3 7.4,21.9 12.5,31.9c4.2,8.2 8,16.3 10.9,25.1c2.6,8.1 5.6,16.1 8.6,24c1.5,3.9 3,7.8 4.7,11.6c0.5,1.2 1.1,2.4 1.3,2.7c0.5,0.8 0.6,1.1 0.5,1.1c1.1,1.2 1.5,2.7 1.6,4.2c0.7,0.4 1.3,0.7 1.3,0.7c1,0.9 1.7,1.7 2.2,3c0.7,1.9 0.8,3.7 0.8,5.7c0,3.1 -2.1,6.4 -5.5,6.4c-8.6,0.1 -17.2,1.2 -25.9,1.6c-7.4,0.3 -16.4,1 -23.3,-2.2c-7.7,-3.6 -12.4,-10.5 -14.8,-18.6c-1.2,-3.9 -2,-7.9 -3,-11.9c-0.9,-3.2 -2.3,-6.2 -3.2,-9.3c-3.1,-10.6 -8.3,-20.6 -12.4,-30.9c-0.3,9.7 0,19.4 0.3,29.1c0.5,15.9 0.4,31.9 -4.2,47.3c-0.7,2.5 -2.6,4.8 -5.4,4.8c-9.3,0.1 -34.8,5.7 -39.7,-6.2c-2.5,-0.2 -4.8,-2 -4.8,-5.3c0,-43.3 -0.2,-86.7 2,-130c2.1,-41.4 7.5,-83.1 2.7,-124.5h-22.2c-3.5,0 -7.6,-3.1 -6.4,-7.1c1.6,-5.4 1.9,-10.8 1.9,-16.4c0,-3.1 2,-5.2 4.3,-5.9c0.3,-1.3 1,-2.5 2.2,-3.4c1.5,-4.8 5.8,-7.2 10.9,-4c6.3,-1.7 12.9,-2.6 19.3,-3.3c10.5,-1.1 21.9,-1.7 32.2,1.1c7.7,2.3 15.2,6.3 18.1,14.3c3.2,8.9 2.3,19.1 1.3,28.3c-1.1,10.3 -3.2,20.6 -4.2,30.9c-1.3,13.5 -0.3,27.5 -0.3,41.1c0,2.7 0,5.4 0.1,8.2c6.6,-8.3 14.4,-16 20.5,-24.5c10.4,-14.2 17.1,-31.7 32,-42.2c2.9,-2 5.8,-1.1 7.6,1c10.1,-0.1 21.3,-0.6 30.9,2.1c5.2,1.5 14.6,2.2 16.3,8.6c1.2,4.2 -1,8.1 -2.8,11.7z" fill="#e87532"></path><path d="M465.5,151.7c-25.2,-40.4 -65.9,-71.6 -108.7,-91.6c-43.3,-20.2 -92.9,-29.5 -140.3,-21.3c-81.8,14.2 -159.9,74.7 -182.8,155.7c-3.3,5.5 -3.8,13.1 -5.2,19.2c-1,4.3 -1.7,8.7 -2.3,13.1c-0.1,0.4 -0.1,0.9 -0.2,1.3c-0.1,0.3 -0.2,0.5 -0.2,0.8c-0.8,4.2 -1.5,8.4 -2.1,12.6c0,0.1 -0.1,0.1 -0.1,0.2c-0.5,1.2 -0.6,2.3 -0.4,3.2c-1,8.1 -1.7,16.2 -2.3,24.3c-0.8,11.4 -0.9,22.9 -0.3,34.3c1.3,22.3 5.6,44.5 13.3,65.5c15.3,41.8 45.5,76.5 86.1,95.3c23.1,10.6 48.8,16.7 73.9,20c25.5,3.3 51.5,3.1 77,-0.6c50.9,-7.4 98.5,-29.7 136.1,-64.8c36.4,-33.9 65,-77.6 78.1,-125.8c13.2,-48 6.9,-98.9 -19.6,-141.4zM374.2,433c-42.4,29.8 -94.1,43.8 -145.6,43.7c-26.1,-0.1 -52.1,-4.2 -77.1,-11.5c-22.9,-6.7 -44.2,-16.8 -62.4,-32.3c-26.5,-22.5 -43.3,-54 -52,-87.3c-4.6,-17.5 -6.6,-35.6 -6.9,-53.7c-0.2,-9.2 0.2,-18.4 1.1,-27.6c0.4,-4.4 0.8,-8.8 1.3,-13.2c0,-0.2 0,-0.5 0,-0.7c0.3,-2.1 0.6,-4.2 0.8,-6.3c2.7,-7.3 2.4,-15.4 3.8,-23c0.8,-4.1 1.8,-8.2 2.7,-12.3c0.2,-0.8 0.3,-1.7 0.4,-2.7c0.4,-1 0.9,-2.1 1.4,-3.1c0.4,-1.4 0.7,-2.9 1.1,-4.3c0.5,-0.9 0.8,-1.8 0.7,-2.6c22.6,-77.6 99,-135.5 177.9,-147.9c47.9,-7.6 97.3,3.8 140.1,25.5c42.6,21.5 82.8,55.7 104.2,99c46.1,93.4 -13,205 -91.5,260.3z" fill="#ffffff"></path><path d="M268,330.3c-1.2,-15.9 -3.5,-31.8 -5.4,-47.6c-1.9,-15.3 -5.4,-31.2 -5.3,-46.6c0,-11.9 0.4,-23.7 -1.7,-35.5c-4.2,-23.4 -22.1,-42.7 -46.6,-44.4c-22.9,-1.6 -44.4,10.8 -63.5,22c-9.3,5.4 -18.4,11.3 -28.2,15.9c-0.2,0.1 -0.3,0.2 -0.5,0.3c-4.9,-5.1 -10.7,-8.3 -18.6,-6.9c-5.8,1 -9.8,6.7 -13.6,10.8c-4.4,4.7 -9.1,9.5 -12.1,15.2c-0.5,0.9 -0.8,2.2 -1.2,2.8c-0.6,1.2 -1.5,2 -1.9,3.2c-3,3.1 -2.7,9.3 2.8,10.2c0.4,0.1 0.8,0.1 1.2,0.2c0.1,0 0.1,0.1 0.2,0.1c0.7,0.3 0.9,0.4 0.9,0.4c0,0 -0.1,0 0.5,0.5c1.6,1.3 1.8,1.7 3.3,4.1c2.4,4 4.3,10.4 5.5,15.8c3.7,15.8 4.3,32.5 4.8,48.7c0.9,29.7 -1.3,59.2 -1.3,88.8c0,2.5 2.4,5.1 4.8,5.4c17.8,2.1 35.7,2 53.1,-2.2c2.5,-0.6 4.2,-3.7 4,-6.1c-2.3,-24.3 -10.2,-47.7 -14.3,-71.8c-3.6,-21.2 -5.5,-49.7 11.3,-66.3c6,-6 12.9,-11.2 19.9,-15.8c7.6,-5.1 16.2,-10 25.4,-11.1c20.6,-2.5 17.5,31.2 16.6,43.7c-1,14.1 -2.8,27.9 -3,42c-0.2,21.4 -1.7,42.8 0,64.2c0,0.6 0.2,1.1 0.3,1.6c-1.1,2.1 -0.9,4.7 1.7,6.5c7.7,5.3 18,5.3 27,5.7c9.8,0.4 19.6,-0.2 29.4,-0.2c3.4,0 5.5,-3.4 5.5,-6.4c0.3,-15.8 0.2,-31.6 -1,-47.2zM237.3,372.2c-4.4,-0.1 -8.8,-0.3 -13.1,-0.8c-1.9,-0.2 -4.8,-0.6 -6.9,-1.2c0,-0.3 0,-0.5 0,-0.8c-1.2,-15.7 -0.9,-31.4 -0.4,-47.1c0.3,-12.1 0.1,-24.2 1.3,-36.2c2,-20.3 6.6,-44.5 -2.5,-63.7c-9.6,-20.2 -32,-14.3 -47.9,-5.8c-16.9,9 -33.7,22.2 -41.3,40.2c-8.5,20.1 -6.3,42.9 -2.4,63.8c3.8,20.3 10,40.2 12.6,60.7c-12.3,2.4 -25,2.5 -37.4,1.3c0.2,-28 2.1,-55.9 1.3,-83.9c-0.5,-16.8 -1.6,-33.6 -5.1,-50.1c-1.9,-9.1 -5,-20 -12.4,-26.3c0,-0.6 -0.1,-1.2 -0.3,-1.8c0.2,-0.4 0.4,-0.9 0.4,-1.4v-0.1v0c0.3,-0.7 0.6,-1.1 1.1,-1.7c2.8,-3.9 6.1,-7.4 9.3,-10.9c2.4,-2.6 4.9,-5.2 7.5,-7.7c1.2,-1.3 -0.1,0.7 -0.6,0.8c1,-0.2 2.4,-0.4 3.5,0c2.8,0.9 4.7,3.7 6.4,5.9c2.5,3.3 6.5,2.9 9,0.9c0.6,-0.1 1.3,-0.2 2,-0.6c20.4,-9.7 38.5,-23.6 59.5,-32c9.7,-3.9 20.3,-6.5 30.8,-4.9c11.2,1.7 21,9.1 26.8,18.6c6.2,10.1 6.7,23.1 6.9,34.6c0.1,5.5 0,11.1 -0.1,16.6c0,8.2 1.7,16.6 2.7,24.7c3.9,31.3 8.7,62.7 9.2,94.3c0.1,4.9 0.1,9.7 0.1,14.6c-6.7,-0.2 -13.4,0.1 -20,0zM446.6,156.6c-1.7,-6.4 -11.1,-7.1 -16.3,-8.6c-9.6,-2.7 -20.8,-2.2 -30.9,-2.1c-1.8,-2 -4.7,-3 -7.6,-1c-14.9,10.4 -21.6,27.9 -32,42.2c-6.1,8.5 -13.9,16.1 -20.5,24.5c0,-2.7 -0.1,-5.5 -0.1,-8.2c0,-13.6 -1,-27.5 0.3,-41.1c1,-10.3 3,-20.6 4.2,-30.9c1,-9.3 1.9,-19.4 -1.3,-28.3c-2.9,-8 -10.4,-12.1 -18.1,-14.2c-10.3,-2.8 -21.7,-2.2 -32.2,-1.1c-6.4,0.7 -13,1.7 -19.3,3.3c-5.1,-3.3 -9.5,-0.8 -10.9,4c-1.2,0.9 -1.9,2.1 -2.2,3.4c-2.4,0.8 -4.3,2.8 -4.3,5.9c0,5.6 -0.3,11 -1.9,16.4c-1.2,4 2.8,7.1 6.4,7.1h22.1c4.8,41.4 -0.6,83.1 -2.7,124.5c-2.2,43.3 -2,86.7 -2,130c0,3.3 2.2,5.1 4.8,5.3c4.9,11.9 30.3,6.3 39.7,6.2c2.8,0 4.7,-2.4 5.4,-4.8c4.5,-15.4 4.7,-31.4 4.2,-47.3c-0.3,-9.7 -0.6,-19.4 -0.3,-29.1c4.1,10.2 9.3,20.3 12.4,30.9c0.9,3.1 2.4,6.1 3.2,9.3c1.1,3.9 1.9,8 3,11.9c2.4,8 7.1,14.9 14.8,18.6c6.9,3.2 15.9,2.5 23.3,2.2c8.6,-0.4 17.2,-1.5 25.9,-1.6c3.4,0 5.5,-3.4 5.5,-6.4c0,-2 0,-3.8 -0.8,-5.7c-0.5,-1.2 -1.2,-2.1 -2.2,-3c0,0 -0.7,-0.4 -1.3,-0.7c0,-1.5 -0.5,-3 -1.6,-4.2c0.1,0 0,-0.3 -0.5,-1.1c-0.1,-0.3 -0.7,-1.5 -1.3,-2.7c-1.7,-3.8 -3.2,-7.7 -4.7,-11.6c-3.1,-7.9 -6,-15.9 -8.6,-24c-2.9,-8.8 -6.6,-16.9 -10.9,-25.1c-5.1,-10 -11.2,-20.6 -12.5,-31.9c-1.3,-11.3 8.1,-21.2 15.2,-28.9c4,-4.3 8.2,-8.4 12.2,-12.7c3.9,-4.2 7.2,-9 10.9,-13.4c8,-9.9 16.3,-19.5 23.3,-30.1c2.9,-4.5 4.9,-9.3 7.3,-14.1c1.9,-3.8 4.1,-7.7 2.9,-11.8zM330.1,143.3c-1.5,10.2 -2.8,20.2 -2.8,30.6v47.5c0,4 0,8 -0.2,11.9c-0.2,0.7 -0.2,1.4 -0.1,2c-0.4,10.9 -1.2,21.7 -3,32.7c-2.4,14.8 -4.1,29.3 -5,44.3c-1.3,23.3 2.8,46.9 -2.5,69.8c-4,0.2 -7.9,0.6 -11.9,0.8c-3,0.1 -6,0.2 -9,-0.2c-0.7,-0.1 -2.1,-0.3 -2.5,-0.4c-0.1,0 -0.1,0 -0.2,-0.1c-0.6,-2 -2,-3.3 -3.8,-3.8c0,-42.3 0,-84.7 2,-126.9c2,-43.3 8,-86.8 2,-130c-0.5,-3.4 -3,-5.5 -6.4,-5.5h-20.2c0.4,-3.4 0.6,-6.8 0.6,-10.2c2.9,-0.4 5.6,-1.5 8.5,-1.8c1.8,-0.2 3.2,-1 4.1,-2.1c4,-0.8 8,-1.4 12,-1.9c9.7,-1.2 19.7,-1.6 29.2,0.5c7.2,1.6 10.6,5.2 11.4,12.5c1.2,10 -0.8,20.4 -2.2,30.3zM433,162.8c-2.6,5.2 -4.8,10.3 -8.1,15.2c-7.1,10.5 -15.6,19.9 -23.5,29.7c-7.4,9.2 -15.6,17.4 -23.5,26.3c-7.8,8.7 -14.7,18.8 -15.2,30.8c-0.5,11.1 5.2,22.4 10,32c4.6,9.3 10.3,18.4 13.2,28.4c2.1,7.5 4.9,14.8 7.6,22c2.1,5.6 4.3,11.2 6.7,16.7c0.9,2.1 1.8,4.4 3.2,6.3c-0.3,0.7 -0.4,1.4 -0.4,2.1c-10.3,0.9 -20.8,2.4 -31,0.6c-12.4,-2.1 -12.5,-20.6 -15.8,-29.9c-3,-8.4 -6.6,-16.7 -10,-25c-2,-4.8 -4,-9.7 -5.9,-14.6c-0.7,-1.8 -1.3,-3.6 -1.9,-5.5c0.9,-2.6 0.4,-5.8 -2.6,-7.6c-1,-0.6 -2,-0.9 -3,-0.9c1.8,-13.2 4.5,-26.2 5.7,-39.4c0.5,-5.3 0.7,-10.7 0.8,-16c2.5,-7.1 7.9,-13.2 12.6,-18.9c5.6,-6.8 11.6,-13.2 16.9,-20.3c9,-12 14.8,-27.6 26.4,-37.6c0.7,0.3 1.5,0.4 2.4,0.4c12.3,0 24.2,0.4 36.1,3.5c-0.2,0.8 -0.5,1.4 -0.7,1.7z" fill="#ffffff"></path></g></g></svg>